HIERARCHY
ROOT Hips
{
 OFFSET 0.000000 0.000000 0.000000
 CHANNELS 6 Xposition Yposition Zposition Yrotation Xrotation Zrotation
 JOINT Chest
 {
  OFFSET 0.000000 0.098509 0.000000
  CHANNELS 3 Yrotation Xrotation Zrotation
  JOINT Chest2
  {
   OFFSET 0.000000 0.108462 0.000000
   CHANNELS 3 Yrotation Xrotation Zrotation
   JOINT Chest3
   {
    OFFSET 0.000000 0.098000 0.000000
    CHANNELS 3 Yrotation Xrotation Zrotation
    JOINT Chest4
    {
     OFFSET 0.000000 0.098000 0.000000
     CHANNELS 3 Yrotation Xrotation Zrotation
     JOINT Neck
     {
      OFFSET 0.000000 0.138000 0.000000
      CHANNELS 3 Yrotation Xrotation Zrotation
      JOINT Head
      {
       OFFSET 0.000000 0.091220 -0.000000
       CHANNELS 3 Yrotation Xrotation Zrotation
       End Site
       {
        OFFSET 0.000000 0.174643 -0.000000
       }
      }
     }
     JOINT RightCollar
     {
      OFFSET -0.030000 0.077000 0.000000
      CHANNELS 3 Yrotation Xrotation Zrotation
      JOINT RightShoulder
      {
       OFFSET -0.140000 0.000000 0.000000
       CHANNELS 3 Yrotation Xrotation Zrotation
       JOINT RightElbow
       {
        OFFSET -0.300000 0.000000 0.000000
        CHANNELS 3 Yrotation Xrotation Zrotation
        JOINT RightWrist
        {
         OFFSET -0.245204 0.000000 0.000000
         CHANNELS 3 Yrotation Xrotation Zrotation
         End Site
         {
          OFFSET -0.183000 0.000000 0.000000
         }
        }
       }
      }
     }
     JOINT LeftCollar
     {
      OFFSET 0.030000 0.077000 0.000000
      CHANNELS 3 Yrotation Xrotation Zrotation
      JOINT LeftShoulder
      {
       OFFSET 0.140000 0.000000 0.000000
       CHANNELS 3 Yrotation Xrotation Zrotation
       JOINT LeftElbow
       {
        OFFSET 0.300000 0.000000 0.000000
        CHANNELS 3 Yrotation Xrotation Zrotation
        JOINT LeftWrist
        {
         OFFSET 0.245204 0.000000 0.000000
         CHANNELS 3 Yrotation Xrotation Zrotation
         End Site
         {
          OFFSET 0.183000 0.000000 0.000000
         }
        }
       }
      }
     }
    }
   }
  }
 }
 JOINT RightHip
 {
  OFFSET -0.080000 0.000000 0.000000
  CHANNELS 3 Yrotation Xrotation Zrotation
  JOINT RightKnee
  {
   OFFSET 0.000000 -0.416481 0.000000
   CHANNELS 3 Yrotation Xrotation Zrotation
   JOINT RightAnkle
   {
    OFFSET 0.000000 -0.406342 0.000000
    CHANNELS 3 Yrotation Xrotation Zrotation
    JOINT RightToe
    {
     OFFSET 0.000000 -0.065000 0.147000
     CHANNELS 3 Yrotation Xrotation Zrotation
     End Site
     {
      OFFSET 0.000000 -0.015000 0.064000
     }
    }
   }
  }
 }
 JOINT LeftHip
 {
  OFFSET 0.080000 0.000000 0.000000
  CHANNELS 3 Yrotation Xrotation Zrotation
  JOINT LeftKnee
  {
   OFFSET 0.000000 -0.416481 0.000000
   CHANNELS 3 Yrotation Xrotation Zrotation
   JOINT LeftAnkle
   {
    OFFSET 0.000000 -0.406342 0.000000
    CHANNELS 3 Yrotation Xrotation Zrotation
    JOINT LeftToe
    {
     OFFSET 0.000000 -0.065000 0.147000
     CHANNELS 3 Yrotation Xrotation Zrotation
     End Site
     {
      OFFSET 0.000000 -0.015000 0.064000
     }
    }
   }
  }
 }
}
MOTION
Frames: 9
Frame Time: 0.004167
-5.696254 0.870520 -2.368109 -110.122778 -10.735016 5.386826 -3.914369 7.291876 -0.717740 -1.724786 3.246786 -0.256694 -1.724786 3.246786 -0.256694 -1.291879 2.435837 -0.183299 3.364269 17.924271 -1.950125 6.846971 -2.705824 -4.714709 -4.770799 -5.481934 4.719985 -10.604886 6.622737 71.940293 -1.829987 29.163359 1.466690 -5.346686 25.336114 5.465547 -3.106366 -6.563532 -8.510525 9.771278 -24.198949 -60.678218 -47.926015 0.291348 -31.727295 -11.012231 7.623470 13.555485 -14.671067 -14.399498 -4.178798 8.236145 4.801620 0.421587 -10.468987 5.730192 2.853346 0.215197 -4.709388 0.565416 0.371318 21.768761 -2.926786 2.426032 19.628959 1.995598 4.509468 -9.504880 -4.520411 0.495162 -20.460565 -2.743167
-5.700536 0.871109 -2.371737 -110.177533 -10.946467 5.232551 -3.869979 7.345328 -0.666549 -1.705775 3.270050 -0.234232 -1.705775 3.270050 -0.234232 -1.277729 2.453214 -0.166492 3.393154 17.958401 -1.953862 6.899294 -2.640225 -4.728856 -4.837278 -5.443527 4.781686 -10.453370 6.424201 72.009258 -2.065082 29.179899 1.272332 -5.485487 25.483035 5.272102 -3.148950 -6.479832 -8.498206 9.829754 -23.979766 -60.812095 -47.763424 0.324374 -31.441214 -11.048155 7.550227 13.733786 -14.515765 -14.193467 -4.110818 8.436382 5.439095 0.503201 -11.003732 6.547100 2.918183 0.255102 -4.802075 0.386775 0.623502 21.504200 -2.646794 2.703777 20.939277 2.295189 4.289122 -8.713117 -4.515895 0.609427 -22.048295 -3.127445
-5.704783 0.871744 -2.375417 -110.249188 -11.189224 5.052384 -3.814974 7.412587 -0.603752 -1.682223 3.299351 -0.206688 -1.682223 3.299351 -0.206688 -1.260201 2.475105 -0.145884 3.424995 17.988835 -1.953422 6.955876 -2.581576 -4.736520 -4.893167 -5.403847 4.848140 -10.330870 6.218862 72.064074 -2.265523 29.188034 1.095158 -5.642882 25.642223 5.059029 -3.185596 -6.397130 -8.489617 9.880663 -23.749958 -60.945958 -47.564095 0.370616 -31.150018 -11.083101 7.476487 13.920362 -14.650820 -14.026475 -3.879217 8.888333 6.191884 0.517485 -11.535075 7.265555 2.937975 0.274213 -4.849345 0.296940 0.906339 21.220643 -2.327037 3.042329 22.314006 2.638680 4.062936 -7.842121 -4.467502 0.758816 -23.724067 -3.611558
-5.708958 0.872377 -2.379138 -110.317299 -11.441505 4.853917 -3.757047 7.486178 -0.532533 -1.657516 3.331410 -0.175423 -1.657516 3.331410 -0.175423 -1.241830 2.499055 -0.122487 3.457552 18.017946 -1.954352 7.014292 -2.525215 -4.747000 -4.939264 -5.378379 4.921711 -10.232137 6.017273 72.103526 -2.430888 29.178625 0.937687 -5.815983 25.809712 4.823475 -3.217107 -6.308886 -8.478078 9.931819 -23.527615 -61.091799 -47.327952 0.435709 -30.857917 -11.115546 7.403544 14.110093 -15.043081 -13.895041 -3.538413 9.546119 6.995355 0.500924 -12.010105 7.871417 2.914852 0.275700 -4.817945 0.274576 1.201579 20.898665 -1.977847 3.457412 23.735057 3.049648 3.825197 -6.878330 -4.380129 0.953293 -25.485699 -4.213588
-5.713014 0.872957 -2.382844 -110.374140 -11.682288 4.636090 -3.695453 7.556801 -0.451268 -1.631378 3.362085 -0.139807 -1.631378 3.362085 -0.139807 -1.222412 2.521958 -0.095842 3.485468 18.053091 -1.963387 7.066465 -2.457364 -4.770410 -4.984908 -5.365000 4.992871 -10.145527 5.820074 72.143000 -2.564304 29.141007 0.795970 -5.999454 25.983213 4.565576 -3.249955 -6.209219 -8.454948 9.990248 -23.322458 -61.262486 -47.053018 0.523308 -30.569976 -11.145856 7.334036 14.302915 -15.407454 -13.810228 -3.180187 10.074240 7.830772 0.468245 -12.361557 8.378719 2.869611 0.266033 -4.711896 0.290783 1.490773 20.526049 -1.595329 3.840746 25.179545 3.465405 3.638082 -5.821852 -4.242995 1.195258 -27.320160 -4.915196
-5.716929 0.873442 -2.386462 -110.424421 -11.896726 4.393281 -3.625534 7.617990 -0.354989 -1.601838 3.388465 -0.097767 -1.601838 3.388465 -0.097767 -1.200486 2.541626 -0.064414 3.504680 18.097996 -1.981612 7.105046 -2.371319 -4.807142 -5.036803 -5.354850 5.047488 -10.058182 5.623220 72.197644 -2.666627 29.070780 0.666753 -6.190257 26.155809 4.292027 -3.288571 -6.101688 -8.418595 10.059134 -23.128416 -61.465484 -46.738909 0.634430 -30.282235 -11.173228 7.271776 14.498360 -15.485620 -13.781669 -2.909517 10.184477 8.691505 0.473699 -12.555262 8.835717 2.779763 0.249310 -4.579084 0.346034 1.740946 20.096320 -1.175508 4.209845 26.644334 3.845161 3.494153 -4.675165 -4.017570 1.495882 -29.231181 -5.731921
-5.720694 0.873809 -2.389962 -110.475731 -12.086276 4.128052 -3.545643 7.668945 -0.244247 -1.568159 3.410210 -0.049581 -1.568159 3.410210 -0.049581 -1.175495 2.557805 -0.028416 3.516512 18.150749 -2.005318 7.131349 -2.270818 -4.850945 -5.095325 -5.335566 5.078103 -9.958613 5.421044 72.277064 -2.740438 28.968169 0.547708 -6.383910 26.315781 4.005221 -3.333500 -5.996288 -8.371762 10.141562 -22.933439 -61.700730 -46.386127 0.771537 -29.992902 -11.196348 7.218852 14.697842 -15.319257 -13.777289 -2.712780 9.913928 9.539622 0.503784 -12.645890 9.167254 2.371817 0.196758 -4.362812 0.640302 1.925895 19.610352 -0.731859 4.631775 28.124972 4.210801 3.348791 -3.454551 -3.699020 1.864366 -31.199070 -6.670662
-5.724385 0.874091 -2.393324 -110.533520 -12.268270 3.846161 -3.456076 7.716471 -0.122580 -1.530402 3.430386 0.003241 -1.530402 3.430386 0.003241 -1.147477 2.572801 0.011029 3.524203 18.207613 -2.029733 7.149981 -2.162931 -4.894379 -5.155921 -5.301679 5.084803 -9.841084 5.212915 72.382051 -2.785308 28.829629 0.440067 -6.580356 26.457231 3.706208 -3.385182 -5.902498 -8.321703 10.238003 -22.726987 -61.962614 -45.995517 0.936730 -29.700029 -11.212310 7.177098 14.902634 -15.035075 -13.735697 -2.576318 9.360930 10.330797 0.559685 -12.491191 9.277324 2.112553 0.162056 -4.008763 0.758286 2.048310 19.090361 -0.272113 5.051434 29.628981 4.531532 3.238529 -2.172956 -3.318900 2.296678 -33.219724 -7.688685
-5.728123 0.874290 -2.396560 -110.598193 -12.462952 3.548198 -3.357410 7.769328 0.008225 -1.488786 3.452913 0.059980 -1.488786 3.452913 0.059980 -1.116591 2.589557 0.053392 3.528765 18.263815 -2.050343 7.161627 -2.056791 -4.929824 -5.215406 -5.252732 5.073533 -9.712439 4.999283 72.504382 -2.799336 28.662782 0.345905 -6.774088 26.574791 3.401867 -3.444006 -5.828668 -8.274625 10.345072 -22.501017 -62.243884 -45.570057 1.130154 -29.400476 -11.216948 7.146205 15.110282 -14.627565 -13.597466 -2.533691 8.653309 11.051366 0.698602 -12.124758 9.081017 1.947861 0.131321 -3.501979 0.781482 2.139595 18.564935 0.205861 5.421012 31.158056 4.792633 3.207355 -0.857060 -2.898516 2.794654 -35.268707 -8.776118
